:FULLY-SPECIFIED
:FORCE-ALL-JOINTS-BE-3DOF
:DEGREES
307
root 10.0162 16.7529 6.1858 7.37394 7.44989 5.10003
lfemur 13.7066 2.92769 -28.7047
ltibia 6.36111e-15 0 0
lfoot -14.6643 0.872805 0
ltoes 1.19895 0 0
rfemur -44.1939 18.1536 -0.849533
rtibia 25.2359 0 0
rfoot -32.8452 -19.8742 0
rtoes -21.3767 0 0
lowerback -8.02387 -4.9625 -6.90312
upperback -0.755937 -6.07315 1.90723
thorax 4.62974 -3.16703 5.0961
lowerneck -18.8571 -4.68291 -12.8086
upperneck 21.7683 -5.85366 12.2363
head 10.8954 -2.32653 5.74676
lclavicle -4.66647e-14 -3.18055e-15 0
lhumerus -11.9981 -35.5609 90.3238
lradius 37.2263 0 0
lwrist 17.6575 0 0
lhand -11.3006 -20.8009 0
lfingers 7.12502 0 0
lthumb 14.7309 8.6557 0
rclavicle -4.66647e-14 -3.18055e-15 0
rhumerus -49.7118 6.05712 -82.7475
rradius 34.614 0 0
rwrist -18.9952 0 0
rhand -28.2791 -27.186 0
rfingers 7.12502 0 0
rthumb -1.65544 -57.1593 0
308
root 10.0033 16.7237 6.39379 7.45384 7.67791 5.11516
lfemur 14.39 3.0083 -28.3969
ltibia 1.45039e-14 0 0
lfoot -14.6103 0.530702 0
ltoes 0.451508 0 0
rfemur -44.1818 17.3305 -0.321577
rtibia 25.0746 0 0
rfoot -32.3503 -19.5886 0
rtoes -21.2995 0 0
lowerback -8.12228 -4.97902 -6.94856
upperback -0.783184 -6.08446 1.89671
thorax 4.66108 -3.17323 5.10234
lowerneck -18.8284 -4.74434 -12.7889
upperneck 21.7309 -5.9563 12.2685
head 10.8917 -2.36842 5.73768
lclavicle -4.46696e-14 5.06175e-16 0
lhumerus -12.4956 -36.3044 90.8429
lradius 37.8705 0 0
lwrist 17.2584 0 0
lhand -10.7685 -21.0596 0
lfingers 7.12502 0 0
lthumb 15.2434 8.35808 0
rclavicle -4.46696e-14 5.06175e-16 0
rhumerus -49.7885 5.94991 -82.7489
rradius 34.0984 0 0
rwrist -18.6988 0 0
rhand -28.135 -26.4778 0
rfingers 7.12502 0 0
rthumb -1.51628 -56.4532 0
309
root 9.98423 16.6851 6.66014 7.53999 7.91518 5.06991
lfemur 15.271 3.15677 -27.908
ltibia 2.4502e-14 0 0
lfoot -14.4146 0.103194 0
ltoes -1.05033 0 0
rfemur -43.9298 15.4108 1.10745
rtibia 25.0246 0 0
rfoot -30.9535 -18.5217 0
rtoes -20.8414 0 0
lowerback -8.23263 -4.9781 -6.94059
upperback -0.806874 -6.07617 1.88705
thorax 4.69465 -3.16874 5.08146
lowerneck -18.8785 -4.82723 -12.7109
upperneck 21.7304 -6.09508 12.276
head 10.9196 -2.42238 5.7047
lclavicle -3.90833e-14 7.00902e-15 0
lhumerus -13.1915 -37.222 91.5085
lradius 38.6263 0 0
lwrist 16.6293 0 0
lhand -10.1274 -21.4357 0
lfingers 7.12502 0 0
lthumb 15.8607 7.93215 0
rclavicle -3.90833e-14 7.00902e-15 0
rhumerus -49.8377 5.80729 -82.7817
rradius 33.4297 0 0
rwrist -18.3012 0 0
rhand -28.1219 -25.3804 0
rfingers 7.12502 0 0
rthumb -1.50362 -55.3562 0
310
root 9.96401 16.6459 6.92807 7.61987 8.12744 4.98584
lfemur 16.1586 3.3304 -27.3657
ltibia 3.45885e-14 0 0
lfoot -14.1675 -0.312651 0
ltoes -2.8739 0 0
rfemur -43.5544 13.0525 2.92017
rtibia 25.0178 0 0
rfoot -29.1895 -17.1325 0
rtoes -20.1174 0 0
lowerback -8.33981 -4.96602 -6.89386
upperback -0.824381 -6.05665 1.8817
thorax 4.72787 -3.15813 5.04511
lowerneck -18.9702 -4.91261 -12.6038
upperneck 21.7509 -6.2388 12.2667
head 10.9627 -2.4769 5.66028
lclavicle -3.2287e-14 1.46604e-14 0
lhumerus -13.9115 -38.143 92.175
lradius 39.3596 0 0
lwrist 15.9408 0 0
lhand -9.50994 -21.8378 0
lfingers 7.12502 0 0
lthumb 16.4552 7.48102 0
rclavicle -3.2287e-14 1.46604e-14 0
rhumerus -49.8612 5.66069 -82.8299
rradius 32.746 0 0
rwrist -17.8972 0 0
rhand -28.191 -24.1455 0
rfingers 7.12502 0 0
rthumb -1.57043 -54.1206 0
311
root 9.94771 16.6147 7.1408 7.68093 8.28044 4.88445
lfemur 16.8619 3.48654 -26.8976
ltibia 4.29964e-14 0 0
lfoot -13.9595 -0.619764 0
ltoes -4.58655 0 0
rfemur -43.1719 10.9137 4.5992
rtibia 24.9866 0 0
rfoot -27.5928 -15.8801 0
rtoes -19.2426 0 0
lowerback -8.42872 -4.94907 -6.82302
upperback -0.83308 -6.03426 1.8841
thorax 4.75814 -3.14595 5.00491
lowerneck -19.0663 -4.98148 -12.4971
upperneck 21.7766 -6.35627 12.2482
head 11.0043 -2.52052 5.61689
lclavicle -2.6662e-14 2.17927e-14 0
lhumerus -14.4814 -38.8966 92.6966
lradius 39.9366 0 0
lwrist 15.3635 0 0
lhand -9.04878 -22.1741 0
lfingers 7.12502 0 0
lthumb 16.8992 7.10781 0
rclavicle -2.6662e-14 2.17927e-14 0
rhumerus -49.8606 5.54154 -82.8779
rradius 32.1854 0 0
rwrist -17.5813 0 0
rhand -28.2938 -23.0244 0
rfingers 7.12502 0 0
rthumb -1.66966 -52.9983 0
312
root 9.94039 16.6001 7.24155 7.71066 8.33992 4.7873
lfemur 17.1899 3.58249 -26.6315
ltibia 4.79586e-14 0 0
lfoot -13.8807 -0.721074 0
ltoes -5.75563 0 0
rfemur -42.899 9.65239 5.62715
rtibia 24.8628 0 0
rfoot -26.6981 -15.2234 0
rtoes -18.3319 0 0
lowerback -8.48427 -4.93354 -6.74275
upperback -0.830344 -6.01736 1.8977
thorax 4.78288 -3.1368 4.9725
lowerneck -19.1296 -5.01485 -12.4203
upperneck 21.7918 -6.41631 12.2284
head 11.0279 -2.54174 5.58703
lclavicle -2.45896e-14 2.67384e-14 0
lhumerus -14.7271 -39.3122 92.9276
lradius 40.2232 0 0
lwrist 15.0678 0 0
lhand -8.87661 -22.3532 0
lfingers 7.12502 0 0
lthumb 17.065 6.91562 0
rclavicle -2.45896e-14 2.67384e-14 0
rhumerus -49.8377 5.4813 -82.9097
rradius 31.8859 0 0
rwrist -17.448 0 0
rhand -28.3814 -22.2687 0
rfingers 7.12502 0 0
rthumb -1.75426 -52.2415 0
313
root 9.94711 16.6109 7.17353 7.6965 8.27162 4.71591
lfemur 16.9516 3.57557 -26.6952
ltibia 4.77083e-14 0 0
lfoot -14.0215 -0.519512 0
ltoes -5.94846 0 0
rfemur -42.8521 9.92662 5.48664
rtibia 24.5787 0 0
rfoot -27.0401 -15.6214 0
rtoes -17.5004 0 0
lowerback -8.49135 -4.92572 -6.66769
upperback -0.813547 -6.01429 1.92595
thorax 4.79951 -3.13523 4.95952
lowerneck -19.1227 -4.99374 -12.4028
upperneck 21.7805 -6.38774 12.2151
head 11.0169 -2.52908 5.58316
lclavicle -2.84511e-14 2.78299e-14 0
lhumerus -14.4744 -39.219 92.7222
lradius 40.0854 0 0
lwrist 15.2244 0 0
lhand -9.12611 -22.2835 0
lfingers 7.12502 0 0
lthumb 16.825 7.00758 0
rclavicle -2.84511e-14 2.78299e-14 0
rhumerus -49.7943 5.51138 -82.9096
rradius 31.9856 0 0
rwrist -17.5921 0 0
rhand -28.4051 -22.13 0
rfingers 7.12502 0 0
rthumb -1.77719 -52.1024 0
314
root 9.92512 16.5768 7.39746 7.72872 8.45385 4.81812
lfemur 17.7335 3.65442 -26.3533
ltibia 4.92912e-14 0 0
lfoot -13.5273 -1.08113 0
ltoes -6.23092 0 0
rfemur -42.7866 8.44039 6.53434
rtibia 25.3734 0 0
rfoot -25.4228 -14.0647 0
rtoes -19.0785 0 0
lowerback -8.48437 -4.92947 -6.78545
upperback -0.851847 -6.00667 1.86572
thorax 4.75962 -3.13047 4.96519
lowerneck -19.1907 -5.06004 -12.4075
upperneck 21.82 -6.48347 12.241
head 11.0606 -2.56788 5.57982
lclavicle -1.67184e-14 2.71286e-14 0
lhumerus -15.2762 -39.5994 93.3717
lradius 40.5102 0 0
lwrist 14.6428 0 0
lhand -8.44537 -22.5563 0
lfingers 7.12502 0 0
lthumb 17.4799 6.67384 0
rclavicle -1.67184e-14 2.71286e-14 0
rhumerus -49.8848 5.41046 -82.9291
rradius 31.6172 0 0
rwrist -17.1831 0 0
rhand -28.4427 -22.1163 0
rfingers 7.12502 0 0
rthumb -1.81351 -52.0884 0
315
root 9.89472 16.5331 7.68541 7.74949 8.6833 4.99678
lfemur 18.7576 3.73609 -25.935
ltibia 4.81795e-14 0 0
lfoot -12.7539 -1.8747 0
ltoes -6.22469 0 0
rfemur -42.7842 6.69895 7.74145
rtibia 26.7235 0 0
rfoot -23.2082 -11.8848 0
rtoes -21.8328 0 0
lowerback -8.43495 -4.93656 -6.97767
upperback -0.908477 -5.99829 1.77197
thorax 4.68059 -3.1247 4.98136
lowerneck -19.2765 -5.14067 -12.4501
upperneck 21.8748 -6.59339 12.2903
head 11.118 -2.61308 5.59029
lclavicle 5.58593e-16 2.34125e-14 0
lhumerus -16.3877 -39.9234 94.2438
lradius 40.9603 0 0
lwrist 13.8863 0 0
lhand -7.53426 -22.8838 0
lfingers 7.12502 0 0
lthumb 18.3563 6.26252 0
rclavicle 5.58593e-16 2.34125e-14 0
rhumerus -50.0255 5.292 -82.9455
rradius 31.2336 0 0
rwrist -16.6497 0 0
rhand -28.4966 -22.469 0
rfingers 7.12502 0 0
rthumb -1.86556 -52.4406 0
316
root 9.86301 16.4885 7.9756 7.76577 8.91498 5.21388
lfemur 19.7965 3.80596 -25.538
ltibia 4.59192e-14 0 0
lfoot -11.9226 -2.71937 0
ltoes -5.96789 0 0
rfemur -42.8213 4.99411 8.89563
rtibia 28.2391 0 0
rfoot -20.9366 -9.58172 0
rtoes -25.0535 0 0
lowerback -8.36696 -4.94631 -7.2055
upperback -0.970141 -5.99097 1.66494
thorax 4.58822 -3.11946 5.00491
lowerneck -19.3656 -5.22226 -12.508
upperneck 21.9389 -6.70139 12.3433
head 11.1799 -2.65817 5.60542
lclavicle 1.93644e-14 1.84373e-14 0
lhumerus -17.5483 -40.1791 95.14
lradius 41.3831 0 0
lwrist 13.1184 0 0
lhand -6.57576 -23.2039 0
lfingers 7.12502 0 0
lthumb 19.2782 5.8533 0
rclavicle 1.93644e-14 1.84373e-14 0
rhumerus -50.1793 5.17529 -82.96
rradius 30.8809 0 0
rwrist -16.0895 0 0
rhand -28.5516 -23.0181 0
rfingers 7.12502 0 0
rthumb -1.91871 -52.9892 0
317
root 9.83711 16.4517 8.20623 7.7845 9.10386 5.43145
lfemur 20.6227 3.84941 -25.26
ltibia 4.40566e-14 0 0
lfoot -11.2548 -3.43429 0
ltoes -5.49861 0 0
rfemur -42.8745 3.6177 9.7845
rtibia 29.5303 0 0
rfoot -19.1483 -7.6554 0
rtoes -28.0312 0 0
lowerback -8.30425 -4.95806 -7.43006
upperback -1.02354 -5.98652 1.56487
thorax 4.50833 -3.11625 5.03274
lowerneck -19.4436 -5.29143 -12.5584
upperneck 22.0061 -6.79138 12.3802
head 11.237 -2.69664 5.61607
lclavicle 3.56837e-14 1.39591e-14 0
lhumerus -18.4974 -40.3543 95.8619
lradius 41.726 0 0
lwrist 12.5028 0 0
lhand -5.75288 -23.4542 0
lfingers 7.12502 0 0
lthumb 20.0696 5.52584 0
rclavicle 3.56837e-14 1.39591e-14 0
rhumerus -50.3092 5.07959 -82.9738
rradius 30.6053 0 0
rwrist -15.6001 0 0
rhand -28.5927 -23.5935 0
rfingers 7.12502 0 0
rthumb -1.95832 -53.5642 0
318
root 9.82412 16.4317 8.31553 7.81266 9.20493 5.61149
lfemur 21.0087 3.85182 -25.1986
ltibia 4.41375e-14 0 0
lfoot -10.9721 -3.8386 0
ltoes -4.85498 0 0
rfemur -42.9203 2.86154 10.1957
rtibia 30.207 0 0
rfoot -18.3838 -6.60583 0
rtoes -30.0563 0 0
lowerback -8.27067 -4.97114 -7.61248
upperback -1.05538 -5.98674 1.49201
thorax 4.46674 -3.11662 5.06173
lowerneck -19.4961 -5.33484 -12.5785
upperneck 22.0703 -6.84727 12.3812
head 11.2803 -2.72199 5.61309
lclavicle 4.5501e-14 1.17339e-14 0
lhumerus -18.9743 -40.4368 96.2111
lradius 41.9363 0 0
lwrist 12.2031 0 0
lhand -5.2486 -23.5725 0
lfingers 7.12502 0 0
lthumb 20.5546 5.35982 0
rclavicle 4.5501e-14 1.17339e-14 0
rhumerus -50.3783 5.02419 -82.9882
rradius 30.453 0 0
rwrist -15.2791 0 0
rhand -28.6045 -24.0252 0
rfingers 7.12502 0 0
rthumb -1.96978 -53.9959 0
